<svg xmlns="http://www.w3.org/2000/svg" width="249" height="122"><title>B125AA0B-EE4B-4884-B0DF-D76B30830211</title><desc>Created with sketchtool.</desc><g fill="none"><g fill="#000"><g><path d="M178.25 62.05c0-4.7.3-11.06 4.28-12.08-.16.67-.58 1.7-.58 1.7-.1 1.67 1.5 1.13.53 5.02-.65 2.58-1.73 5.12-4.23 5.35zm20.37-6.37h-1.03c.68-8.16 4.1-17.07 4.1-25.03-7.96.18-8.1 8.25-13.4 11.7-3.38 2.16-2.93 1.16-6.62 1.07.07-3.02 1.03-2.9 1.03-6.64-1.7 1.24-1.12 2.77-1.73 5.42-1.15 5-2.73 14.54-4.1 17.9l-.32.7c-.36-4.26.4-8.6 1.72-13.1 1.28-4.4 2.23-9.2 1.87-13.47-5.4.45-8.12 2.38-9.24 7.15 2.45-.2 1-.64 2.57 0-.17 2-1.15 4.33-1.66 6.53-1.3 5.68-1.26 15.35-8.6 15.96.83-3.54 1.74-6.13 2.76-9.52 1.24-4.1 1.35-6.3 1.35-11.43h-.5c0 4.07-.85 7.63-1.67 11.12l-2.22 7.5c-.54 1.54-.34 1.3-1.24 2.34 0-8.36 4.1-14.44 4.1-22.48 0-4.23-4.4-5.3-7.6-3.5-3 1.67-3.8 5.64-7.28 6.57-.18-8.2-9.7-3.75-13.46 1.4-.06.1-.15.23-.2.3-.82 1.08-.2.26-.7.85.14-1 1.5-5.1-.52-5.1-5.66 0-10.14 2.64-10.27 8.16 1.06-.55 1.22-.7 2.57-1.02-.7 8.42-6 22.84-6.16 29.63 3.9 0 6.8-2.04 8.4-5.42 1.24-2.56 1.93-6.62 2.45-9.83 1.08-6.6 1.48-14.9 10.2-14.9-1.08 1.47-3.92 2.08-5.76 4.5-3.3 4.4-3.45 11.9-4.47 17.02-.3 1.53-.6 2.92-1 4.1-.6 1.78-1.2 2.2-1.62 4.02 6.9-5.02 1.4-27.32 13.35-27.58-.83 1.7-5.65 22-5.65 24.5 8.26 0 9.12-8.4 10.2-14.87.76-4.6 1.07-9.72 4.53-12.85 1.9-1.73 2.25-.92 4.26-1.88-.56 1.54-1.7 1.44-2.97 2.65-3.2 3.07-3.7 7.87-4.5 12.38-.86 4.73-1.34 9.1-3.9 12.98-1.44 2.2-1.86 1.6-3 3.15 6.1-1.42 6.8-9.32 7.55-14.45.85-5.86 1.66-14.02 7.85-14.16 0 2.85-1.33 6.02-1.95 8.28-1.86 6.75-1.65 8.5-1.13 14.7 5.28.45 7.1-.6 10.88-3.97 1.54-1.38 1.14-1.6 3.48-2.15-1.64 3.1-3.94 5.24-7.2 6.63-.45.2-1.03.4-1.46.6-.1.04-.25.1-.35.15l-1.25.8c6.64 0 6.92-4.24 11.04-5.87 1.7-.67 5.36 0 7.53-.67 2.25-.7 3.95-1.76 5.45-3.26 9.84-9.88 0-16.13 10.88-23.4 0 5-4.44 4.25-4.5 8.15-.06 3.18-.05 7.47-1.58 10.83-2.52 5.57-7.92 10.13-16 10.13v.5c11.08 0 17.1-5.84 18.37-15.43.28-2.24-.4-4.8.42-6.72l2.25-2.34c0 3.02-5.44 17.87-.5 17.87 7.15 0 10.36-5.64 15.37-9.2 1.44-1.02 3.58-1.62 4.64-3.05-1.58-.42-3.06-1.74-4.62-2.56-1.8 2.7-4.8 7.85-8.73 8.17.64-1.33 2.05-9.04 2.44-10.86l1.56-8.15c.48-2.6-.6-1.18 1.13-2.46.27 11.8 17.42 11.18 25.62 8.63 1.28-.4 2.9-.98 4.16-1.47.6-.23 1.52-.55 2.2-.87 1.13-.5 1.18-.56 1.9-1.18-2.37.05-3.76.9-6.37 1.32-19.92 3.23-27.95-8.1-20.16-24.66 1.16-2.45 5-7.03 5.5-8.83-4.97 1.32-12.33 12.95-13.57 19.7l-4.9 28.3z"/><path d="M7.67 99.14c.64-2.28 2.32-2.95 5.27-3-.7 2.5-2.57 2.4-5.27 3zm6.9 6.06c2.54-1.43 4.47-2.72 7.42-4.23.57-.3 1.24-.2 1.8-.2 4.08-.2 6.82 1.48 13.18-.28 5.58-1.56 10.28-5 14.17-9.2 6.68-7.25 9.66-13.8 11.44-22.37.3-1.48.57-3.02.82-4.63 1.13-7.46 1.12-9.1-1.4-16.34 1.6 6.96 2.27 8.6.76 16.97-.34 1.32-.62 2.7-.96 3.94-2.32 8.3-4.95 14.87-11.78 21.6-3.7 3.68-8.9 7.37-14.14 8.34-5.14.96-8.42 1.08-14.2.5l-1.1.45-4.62 3.24s-2.34 1.2-2.7 1.33c-2.27.75-5.46 1.2-7.88 1.1-2.88.2 3.17 2.83 9.17-.23zm3.8-42.2l.6.25c-1.7 3.12-5.78 3.8-8.3 1.06 2.8.6 5.2-.1 7.7-1.3zM5.4 97.65c.48-5.46 6.82-3.37 7.54-3.37v.48c-2.8 0-5.82 1.8-7.53 2.9zm1.4-41.1c0 8.9 7.88 6.3 10.2 6.1.65-7.7-.5.5-.5-6.62 0-4.57 3.46-8.5 6.34-10.48 6.78-4.68 11.86-4.3 19.7-4.3 1.45 0 .95.23 1.54 1.03-1.64-.38-2.2-.87-3.57 0 6.13.5 9.18 2.38 10.96 10.98 3.12 15.08-5.1 41.47-23.73 41.47 2.74-5.16 5.44-15.58 6.95-21.6l3.98-17.4c.46-2 1.2-4.58 1.33-6.32-.88 1-.7.8-1.25 2.33-.4 1.15-.53 1.7-.8 2.76-2.37 9.06-6.1 34.84-12.77 39.7.56-2.38 5.1-11.5 7.87-23.72 1.1-4.94 5.4-23.08 5.4-26.68h-2.54c.4-.54.16-.27.8-.75.06-.05.2-.15.3-.2.07-.07.22-.16.3-.2.08-.06.26-.16.32-.2.07-.04.23-.1.33-.18-4.92 0-10.46 2.17-13.6 4.27-3.74 2.5-6.83 5.5-6.83 11.52.07-.1.13-.42.16-.35.33 1.03.25-.58.3-.7 2.6-6.45 6.47-10.98 13.84-12.7-2.07 3.1-3.45 3.02-5.4 9.9-2 7.04-7.2 37.47-9.92 37.47-3.58 0-6.14-1.24-11.6 1.67-1.57.83-2.56 1.8-3.18 2.9-3.06 5.4-1.6 8.35 3.7 8.87 4.46.45 7.1-1.73 14.1-5.87 3.78-2.24 11.33 2.83 23.65-4.9 20.5-12.87 31.35-57.66-1.13-57.66-8.7 0-16.18 2.5-22.34 5.23-4.23 1.87-9.3 4.9-11.4 9-.6 1.13-1.5 3.93-1.5 5.63z"/><path d="M61.9 113.85c0-5.66 4.07-9.4 8.04-12.42 1.46-1.12 2.12-2.27 3.95-2.74-.57 6.55-5.27 14.6-12 15.15zm-1.5-.76c0-6.7 1.85-8.7 5.36-11.92 1.5-1.36 8.06-6.6 9.63-7.04l-4 4.6c-11.97 8.05-8.1 12.17-11 14.35zm13.04-31.52c0-5.3 1.64-9.18 2.75-13.68.96-3.92 2.84-9.77 2.84-14.1-1.67 1.24-1.18 2.15-2 6.23l-3.2 14.25c-.27 1.02-.57 2-.9 3.2-.5 1.96-.18 2.07-1.53 3.07 0-10.27 5.1-16.83 5.1-28.28-2.03-.17-1.23-.52-2.55-.52-4.48 0-6.78 4.35-10.17 4.63l-.5 7.2c1.63-1.9 1.53-2.54 3.55-3.08L64.4 70.9c-1.92 6.9-2.14 6.5-2.14 13.77 0 4.92 2 7.4 6.67 6.38 5.23-1.14 6.4-5.15 10.6-7.4-1.03 4.52-5.16 7.03-9.12 8.27-.45.15-1.7.46-2 .85-.75 1.04-.26-.16-.05.7l.3.63c.05.07.17.22.22.34C63.3 97.42 55.14 105.8 55.14 115c0 2.1 2.2 5.67 4.07 5.67 4.8 0 9.44-2.3 12.37-4.47 5.96-4.43 10.3-14.1 12.34-21.46 1.35-4.83.45-7.3 9.88-7.5 0-2.92.08-4.8-4.07-5.14l6.86-28.62c.65-2.45.98-2.38-.24-3.27l-3.68 16.34c-.8 4.03-2.34 13.62-4.96 15.56.06-2.82 7.12-29.13 7.12-33.43-13.23 0-10.24 17-13.93 26.54-1.6 4.14-3.03 5.35-7.43 6.38z"/><path d="M236.8 14.26c-.1 1.6.02 2.27-1.35 2.27-.93 0-.84-1.17-.9-2.27h2.26zm4.75 4.53c2.33 3.5 2.05 4.9 2.05 8.76l-.45.3c-1.83-2.75-2.07-5.98-1.6-9.07zm-4.47 0c1.57 3.77 2.23 7.1 1.92 11.32 0 0-.34 0-.45-.3-1.4-3.9-2.2-6.8-1.47-11.03zm-4.4-.3c.72 3.55 1.6 6.76 1.6 10.37 0 .26-.05 1.23-.05 1.23s-.33.3-.4.04c-1.34-4.04-2.02-6.03-1.9-10.57l.3-1.15.12-.24c-.25.04-.5.08-.78.1l-9.2 1.6c.07 2.5 1.04 3.8 2.27 5.4 1.1 1.43 2.1 2.76 3.92 3.24 0-3.65-.8-4.74-1.03-7.62 2.77 2 1.62 5.45 1.54 8.64 2.62.7 5.23 5.2 19.05 2.03-3.26 4.82-8.6 6.1-14.4 6.1-9.26 0-19.58-9.55-19.58-20.83 0-4.56 2.26-7.52 3.45-9.75 3.93-7.37 13-7.8 20.07-4.34 12.4 6.07 13.73 26 4.28 26.78 1.4-2.05 5.15-4.32 5.15-9.65 0-5.16-.8-3.43-5.7-3.08-5.18.37-6.7.97-8.8 1.32l.1.37zm-1.92-3.2c.22-1.28 1.57-1.02 3.02-1.02-.52 2.27-1.44 3.18-3.02 1.02zm1.5-1.08c-2.13-.06-1.77.57-2.25-1.67.7-.32 1.4-.47 2.27-.55v2.22zm.77-1.75c3 0 3.6-.43 5.94-.47.27 1.02 1.13 2.88 1.6 3.77h-2.68c.36-3.9.66-.1-1.1-2.83-1.75 1.03-3.04 1.93-3.77-.47zm-5.38 4.8c-.07-2.83-.75-1.85-.95-4.36l-.47-.47V10.5h2.36c0 2.97.55 1.87 0 4.35 1.7.47 1.25.05 1.4 1.95-1.07.25-1.08.37-2.35.48zm4.62-6.92v1.18c-2.18.22-2.78 1.6-3.02-1.78 2.05 0 1.62-.2 3.02.6zm3.03-.1v.97c-2.05 0-1.63.17-3.03-.5v-.97c2.05 0 1.63-.17 3.03.5zm-5.3-.52c-1.77-.05-1.06.15-2.26-.56.25-1.22-.14-.47.5-1.16 1.3-1.38 1.66.13 1.77 1.73zm-4.53-1.5h1.5v2.24c-.62 0-1.28.08-1.9-.13l-1.1-1 1.5-1.12zm8.3-.95c-.2 1.07-.1.93-.5 1.7-1.97-.05-1.17.15-2.5-.57.44-1.38.7-2.37 3-1.12zm-9.56 2.18c.07 2.6 1 3.2 1.17 5.28.16 2.04-2.5 1.4.86 1.7v2.48c-5.37.12-4.93 4.55-5.92-3.12-.26-2.06-.06-3.93.34-5.4.53-1.88.72-2.45 2.57-2.93-.26 2.42.32-1.16-.22.8-.57 2.05-.66.12-.28 1.2h1.5zm16.48 6.3c-.1-4-2.4-5.43-3.12-8.3 4.88.1 7.34 4.37 8.3 8.3h-5.18zm-14.9-7.54h-1.82V5.95c1.23.1 1.24.22 2.27.46-.1 1.25-.04 1-.45 1.82zm1.2-3.02c2.02.06 2.1-.18 2.27 2.27h-2.27V5.2zm8.22 5l1.04-.53-2.08-2.1c-.12-1.43-.05-1.13-.52-2.08-1.47.48-3.53 3.75-3.63-1.06h5.72c.08 3.64 1.9 4.18 2.6 6.8-2.07-.05-1.93-.24-3.12-1.05z"/><path d="M102.67 54.8c3.7-1.97 7.44-6.1 9.65-3.06-1.76.14-3.4.6-4.7 1.4-1.58.9-2.23 1.5-2.4 3.7 2.98-2 2.76-4.08 7.6-4.08 2.5 0 1.53 5.28 1.53 7.67-2.26.53-5.16.9-7.24 1.4-2.83.68-4.36 1.37-4.43 4.74 4.25-.36 6-1.54 11.17-1.54-2.03 2.8-6.92.54-9.14 3.58 2.64-.6 5.55-1.52 8.64-1.52-.3 3.66-3.2 8.93-6.3 11.05-1.78 1.23-2.7.93-4.37 1.73 0-6.13 2.53-3.76 0-5.62-.5 1.05-.72 2.8-1.02 4.1l-.4-6.14c-10.63.17-7.82 11.75-2.64 11.75 8.27 0 13.25-3.75 17.7-10.32 2.58-3.8 4.94-8.68 5.9-13.5.55-2.86-.48-4.02 1.3-5.33l-1.73 11.57c-.94 3.23-2.78 6.8-4.57 9.2-2.55 3.4-7.3 7.2-11.28 8.6-1.08.37-1.7.54-2.7.86-3.54 1.12 0-.67-2.58.97C114.34 86 124 69.98 124 59.92l-.5-8.7c-.4.6-.24 0-.43 1.1-.12.73-.1 1.25-.1 1.97h-.5c0-5.65-1.4-7.84-4.06-8.7-4.37-1.38-8.63-.34-12.1 2.62-2.03 1.74-3.56 3.67-3.63 6.58"/><path d="M195 65c9 0 7-8.6 20.37-11.13 1.8-.34 4.43-.76 6.23-1.42.97-.35 1.87-.83 2.63-1.43 2.7-2.12.5-2.5 3.86-3.74 2.55-.94 6.34-2.2 7.9-4.28-2.3.52-3.05 1.56-5.44 2.2-4.62 1.2-2.46-.2-5.2 2.92-5.1 5.85-9.3 1.07-19.1 8.38-.97.73-1.22.94-2.17 1.87-2.25 2.2-3.52 3.83-6.37 5.3l-2.4 1.15c-.08.03-.23.1-.33.18"/><path d="M86.74 89.6c-.1 4.54-5.65 16.96-8.13 20.68-3.74 5.6-9.96 11.2-17.6 11.2v.52c14.67 0 21.18-13.65 25.3-26.16.63-1.98 1.47-3.55 1.98-5.73 3.05-.05 3.8-1 7.72-1V86l-1.45 1.64c-1.4 1-6.15 1.82-7.8 1.96"/><path d="M216.5 49c3.76 0 5.62-.63 7.5-3.18-3.3.7-8 2.9-14.5-.46-1.6-.84-.46-.86-2.5-1.36.95 3.23 6.76 5 9.5 5"/><path d="M100.23 103.67l-.16-.77c.22-.06.36-.15.43-.26.07-.13.08-.3.03-.53l-1.5-7.26c-.04-.23-.12-.4-.22-.47-.1-.08-.26-.1-.5-.1l-.16-.75 3.85-.8.14.76c-.22.1-.37.2-.43.3-.06.12-.07.28-.02.5l.53 2.58 2.3-3.12c.13-.18.2-.33.17-.45-.03-.18-.26-.24-.67-.2l-.16-.76 4.1-.85.17.75c-.2.08-.4.2-.6.35-.25.18-.43.36-.56.56l-1.82 2.5 4.67 4.58c.14.16.28.26.42.3.13.07.34.1.62.13l.16.77-4.45.92-.15-.77c.32-.13.47-.28.43-.46 0-.07-.06-.16-.16-.27l-3.1-3.1-.93 1.22.53 2.56c.05.23.12.38.2.45.1.08.28.1.55.1l.16.77-3.85.8zm15.9-7.03l-3.22.67-.26 2.18c0 .04 0 .07 0 .1 0 .08 0 .13 0 .17 0 .08.08.15.2.2.12.05.26.06.42.05l.15.76-3 .62-.16-.75c.3-.2.5-.5.55-.9l1.48-9.22 2.6-.53 5.02 7.97c.15.26.4.43.77.5l.16.77-3.76.8-.16-.77c.15-.04.27-.1.34-.2.08-.1.1-.18.1-.27v-.03l-.05-.1-.04-.1-1.14-1.9zm-.6-1.1l-1.83-3.3-.43 3.82 2.26-.5zm3.8-5.85l5.3-1.07c2.58-.52 4.07.1 4.44 1.85.1.52.1 1-.02 1.47-.13.46-.38.9-.76 1.36-.4.46-.92.9-1.57 1.34-.65.44-1.46.9-2.43 1.38l-.12.06.35 1.67c.05.25.13.4.24.48.1.07.3.1.53.07l.17.76-4 .8-.15-.77c.22-.07.38-.16.45-.27.07-.12.08-.3.03-.53l-1.56-7.3c-.05-.23-.12-.38-.22-.46-.12-.08-.3-.1-.54-.1l-.16-.75zm4.54 4.84l.1-.08c.58-.43 1.04-.83 1.37-1.2.33-.35.56-.7.67-1.04.13-.34.15-.7.08-1.07-.1-.53-.32-.88-.68-1.05-.36-.17-.88-.17-1.57 0l-.13.02-.45.1-.15.04.77 4.28zm12.66-1.7l-3.2.66-.27 2.18c0 .03 0 .07 0 .1 0 .08 0 .13 0 .17 0 .08.08.15.2.2.12.05.26.06.4.04l.17.75-3.02.63-.14-.76c.3-.2.5-.5.55-.88l1.5-9.23 2.6-.53 5.02 7.96c.15.26.4.44.77.52l.15.76-3.76.8-.17-.77c.14-.04.25-.1.33-.2.08-.1.1-.18.1-.28l-.02-.03-.03-.1-.03-.1-1.14-1.88zm-1.33-1.1l-1.84-3.3-.43 3.8 2.27-.5zm16.5-4.1c.16.8.18 1.6.04 2.32-.14.74-.42 1.4-.84 2-.42.6-.97 1.1-1.64 1.52-.67.4-1.44.7-2.32.9-.87.17-1.7.2-2.48.1-.78-.12-1.5-.37-2.12-.76-.63-.38-1.15-.88-1.58-1.5-.43-.62-.72-1.33-.9-2.14-.16-.8-.17-1.58-.02-2.32.15-.75.44-1.43.87-2.03.44-.62.98-1.13 1.66-1.55.67-.42 1.43-.72 2.28-.9.86-.18 1.68-.2 2.46-.08.78.12 1.5.37 2.12.76.62.4 1.15.9 1.6 1.52.4.62.7 1.34.88 2.16zm-3.02 1.02c-.1-.58-.3-1.1-.52-1.54-.23-.44-.5-.8-.8-1.08-.33-.27-.7-.46-1.08-.56-.4-.1-.8-.1-1.26 0-.58.1-1.05.37-1.43.77-.4.4-.64.9-.76 1.5-.12.62-.1 1.3.04 2.04.16.75.42 1.4.77 1.92.35.52.77.88 1.28 1.1.5.2 1.05.25 1.65.13.56-.12 1.03-.38 1.4-.77.38-.4.63-.9.75-1.5.12-.62.1-1.3-.05-2.02zm5.24 3.6l-.15-.77c.2-.07.36-.16.43-.28.06-.12.07-.3.03-.52l-1.5-7.27c-.05-.24-.12-.4-.23-.47-.1-.08-.27-.1-.5-.1l-.17-.75 3.85-.8.16.77c-.23.1-.37.2-.44.3-.07.1-.08.28-.03.5l.53 2.58 2.3-3.12c.13-.18.2-.33.17-.45-.04-.17-.26-.23-.68-.2l-.17-.75 4.12-.85.15.76c-.2.08-.42.2-.62.35-.23.17-.42.35-.55.55l-1.8 2.48 4.65 4.6c.15.15.3.26.43.3.15.07.36.1.63.13l.16.77-4.45.92-.16-.77c.32-.12.47-.28.43-.46 0-.06-.07-.15-.16-.26l-3.1-3.12-.93 1.24.53 2.57c.04.23.1.38.2.45s.27.1.54.1l.17.76-3.85.8zm11.4-1.53l-.17-.78c.23-.06.37-.15.44-.27.06-.12.07-.3.03-.54l-1.54-7.4c-.06-.27-.14-.44-.23-.52-.1-.08-.28-.1-.53-.06l-.16-.77 8.86-1.84.5 2.38-.8.17c-.1-.22-.2-.38-.35-.5-.2-.1-.37-.18-.56-.18-.18 0-.53.05-1.03.15l-3 .62.47 2.3 2.75-.56c.34-.07.57-.17.7-.3.12-.1.2-.3.2-.57l.77-.16.58 2.86-.78.16c-.1-.26-.24-.44-.43-.52-.2-.08-.47-.08-.84 0l-2.66.55.75 3.6 3.56-.74c.38-.07.66-.16.86-.26.2-.1.32-.23.4-.38.07-.16.1-.38.1-.65l.77-.15.52 2.48-9.2 1.9zm12.98-6.02l-3.44.7-.34-1.58 3.45-.7.33 1.6zm2.1 2.23l-.17-.77c.22-.06.37-.15.43-.26.07-.13.08-.3.04-.53l-1.5-7.27c-.05-.23-.13-.4-.23-.47-.1-.08-.27-.1-.5-.1l-.17-.75 3.85-.8.16.77c-.22.08-.36.18-.43.3-.07.1-.08.27-.03.5l.53 2.57 2.28-3.12c.15-.18.2-.33.18-.44-.03-.17-.26-.24-.67-.2l-.16-.76 4.1-.85.17.76c-.22.1-.42.2-.62.36-.23.18-.42.37-.55.56l-1.8 2.5 4.65 4.58c.15.16.3.26.43.3.14.07.34.1.62.13l.16.77-4.44.92-.16-.77c.33-.12.47-.27.44-.45-.02-.07-.07-.15-.17-.27l-3.1-3.1-.92 1.22.54 2.58c.04.23.1.38.2.44.1.07.27.1.54.1l.16.76-3.85.8zm14.48-13.7l4.24 7.93c.15.25.3.43.43.53.15.1.32.15.53.15l.15.76-3.77.8-.15-.74c.2-.1.3-.2.34-.26.04-.07.05-.17.02-.3-.03-.14-.1-.3-.2-.54l-3.04-5.66-.66 6.63c-.02.1-.02.23 0 .36.06.24.26.37.6.38l.15.74-2.95.62-.15-.73c.2-.1.32-.2.4-.32.07-.1.12-.3.15-.52l1.23-9.26 2.7-.57zm9.63-1.63l3.14-.65.16.78c-.23.14-.38.28-.47.4-.08.1-.16.33-.23.65l-1.85 7.58c-.15.6-.26 1-.32 1.17-.06.16-.17.35-.32.56-.35.47-.92.8-1.7.96-.4.1-.86.08-1.36 0l-.77-2.15.73-.27c.17.3.34.52.53.63.2.1.43.14.7.08.2-.04.36-.12.47-.24.1-.1.16-.18.2-.28.04-.1.1-.3.2-.62.02-.08.04-.14.05-.2l-4.6-5.7c-.18-.2-.34-.33-.46-.42-.14-.05-.3-.1-.48-.13l-.15-.78 4.1-.85.15.77c-.3.16-.45.34-.42.52.03.12.08.22.16.3l2.5 3.07.86-3.64c.04-.17.05-.3.03-.42-.04-.2-.22-.3-.53-.35-.04 0-.1-.02-.15-.02l-.16-.78zm4.05-1.25l7.7-1.68.48 2.5-.73.15c-.16-.63-.58-.87-1.25-.72l-2.7.6.33 1.7h.18c1.02.02 1.9.1 2.7.23.77.15 1.42.35 1.95.6.53.27.94.6 1.26 1 .3.4.52.86.62 1.4.1.52.08 1-.08 1.46-.15.45-.4.82-.77 1.1-.54.44-1.38.78-2.54 1.03l-5.1 1.1-.15-.78c.23-.06.38-.14.44-.26.06-.13.07-.32.02-.57l-1.46-7.48c-.04-.24-.12-.4-.24-.5-.1-.1-.28-.14-.5-.12l-.17-.78zm3.78 4.4l.82 3.8c.37-.03.63-.06.77-.1.7-.12 1.24-.3 1.65-.55.2-.14.36-.33.46-.57.1-.23.1-.5.05-.75-.08-.37-.28-.7-.6-.97-.33-.26-.76-.47-1.3-.6-.53-.16-1.14-.24-1.85-.25z"/></g></g></g></svg>